<svg width="1440" height="147" viewBox="0 0 1440 147" fill="none" xmlns="http://www.w3.org/2000/svg">
<path d="M1255 85.4854C1278.99 75.4816 1328.07 51.1722 1332.44 33.9656C1337.89 12.4573 1298.08 2.95361 1293.17 33.9656C1289.49 57.2361 1293.17 115.497 1345.52 114.997C1397.87 114.497 1494.94 -25.9037 1634 5.60839" stroke="#45C1FF" stroke-dasharray="4 4"/>
<circle cx="1255" cy="79" r="28" fill="#297373"/>
<path fill-rule="evenodd" clip-rule="evenodd" d="M1254.98 88.606C1254.98 88.606 1262.66 86.283 1262.66 79.879C1262.66 73.474 1262.93 72.974 1262.32 72.358C1261.7 71.742 1255.99 69.75 1254.98 69.75C1253.98 69.75 1248.27 71.742 1247.65 72.358C1247.03 72.974 1247.31 73.474 1247.31 79.879C1247.31 86.283 1254.98 88.606 1254.98 88.606Z" stroke="white" stroke-width="1.5" stroke-linecap="round" stroke-linejoin="round"/>
<path d="M1252.39 78.8746L1254.28 80.7696L1258.18 76.8696" stroke="white" stroke-width="1.5" stroke-linecap="round" stroke-linejoin="round"/>
</svg>
