<svg width="213" height="116" viewBox="0 0 213 116" fill="none" xmlns="http://www.w3.org/2000/svg">
<path d="M28 85.4854C51.9942 75.4816 101.073 51.1722 105.436 33.9656C110.889 12.4573 71.0806 2.95361 66.1727 33.9656C62.4899 57.2361 66.1727 115.497 118.524 114.997C170.875 114.497 267.942 -25.9037 407 5.60839" stroke="#FF7088" stroke-dasharray="4 4"/>
<circle cx="28" cy="79" r="28" fill="#E4572E"/>
<path fill-rule="evenodd" clip-rule="evenodd" d="M27.9845 88.606C27.9845 88.606 35.6565 86.283 35.6565 79.879C35.6565 73.474 35.9345 72.974 35.3195 72.358C34.7035 71.742 28.9905 69.75 27.9845 69.75C26.9785 69.75 21.2655 71.742 20.6505 72.358C20.0345 72.974 20.3125 73.474 20.3125 79.879C20.3125 86.283 27.9845 88.606 27.9845 88.606Z" stroke="white" stroke-width="1.5" stroke-linecap="round" stroke-linejoin="round"/>
<path d="M25.3859 78.8746L27.2779 80.7696L31.1759 76.8696" stroke="white" stroke-width="1.5" stroke-linecap="round" stroke-linejoin="round"/>
</svg>
