<svg width="236" height="102" viewBox="0 0 236 102" fill="none" xmlns="http://www.w3.org/2000/svg">
<path d="M0 71.7453C22 61.8295 67 37.7341 71 20.679C76 -0.639951 39.5 -10.06 35 20.679C31.6233 43.7446 35 101.493 83 100.997C131 100.501 180.833 68.7705 208 59.3505" stroke="#70CFFF" stroke-dasharray="4 4"/>
<circle cx="208" cy="57" r="28" fill="#E4572E"/>
<path d="M203.371 55.2017V62.0618" stroke="white" stroke-width="1.5" stroke-linecap="round" stroke-linejoin="round"/>
<path d="M208.038 51.9191V62.0618" stroke="white" stroke-width="1.5" stroke-linecap="round" stroke-linejoin="round"/>
<path d="M212.629 58.8268V62.0618" stroke="white" stroke-width="1.5" stroke-linecap="round" stroke-linejoin="round"/>
<path fill-rule="evenodd" clip-rule="evenodd" d="M212.686 47H203.314C200.048 47 198 49.3121 198 52.5852V61.4148C198 64.6879 200.038 67 203.314 67H212.686C215.962 67 218 64.6879 218 61.4148V52.5852C218 49.3121 215.962 47 212.686 47Z" stroke="white" stroke-width="1.5" stroke-linecap="round" stroke-linejoin="round"/>
</svg>
