<svg width="172" height="103" viewBox="0 0 172 103" fill="none" xmlns="http://www.w3.org/2000/svg">
<path d="M28.5 72.0001C50.5 62.0001 95.5 37.7001 99.5 20.5001C104.5 -0.999949 68 -10.5 63.5 20.5001C60.1233 43.7616 63.5 102 111.5 101.5C159.5 101 209.333 69 236.5 59.5" stroke="#ABB8C1" stroke-dasharray="4 4"/>
<circle cx="28" cy="72" r="28" fill="#FFD55D"/>
<path d="M38.832 71.445C38.656 71.182 34.461 65 28 65C21.506 65 17.34 71.185 17.166 71.448C16.944 71.783 16.944 72.219 17.168 72.554C17.344 72.818 21.539 79 28 79C34.428 79 38.653 72.821 38.83 72.558C39.056 72.222 39.057 71.782 38.832 71.445ZM28 77C23.65 77 20.365 73.404 19.247 71.998C19.905 71.166 21.322 69.573 23.271 68.408C23.1 68.908 23 69.441 23 70C23 72.757 25.243 75 28 75C30.757 75 33 72.757 33 70C33 69.445 32.901 68.915 32.732 68.418C34.672 69.582 36.089 71.168 36.75 71.999C35.623 73.407 32.324 77 28 77Z" fill="white"/>
</svg>
