<svg width="172" height="116" viewBox="0 0 172 116" fill="none" xmlns="http://www.w3.org/2000/svg">
<path d="M28 85.4854C51.9942 75.4816 101.073 51.1722 105.436 33.9656C110.889 12.4573 71.0806 2.95361 66.1727 33.9656C62.4899 57.2361 66.1727 115.497 118.524 114.997C170.875 114.497 267.942 -25.9037 407 5.60839" stroke="#DADFE9" stroke-dasharray="4 4"/>
<circle cx="28" cy="83" r="28" fill="#E9D758"/>
<path fill-rule="evenodd" clip-rule="evenodd" d="M27.9845 92.606C27.9845 92.606 35.6565 90.283 35.6565 83.879C35.6565 77.474 35.9345 76.974 35.3195 76.358C34.7035 75.742 28.9905 73.75 27.9845 73.75C26.9785 73.75 21.2655 75.742 20.6505 76.358C20.0345 76.974 20.3125 77.474 20.3125 83.879C20.3125 90.283 27.9845 92.606 27.9845 92.606Z" stroke="white" stroke-width="1.5" stroke-linecap="round" stroke-linejoin="round"/>
<path d="M25.3859 82.8746L27.2779 84.7696L31.1759 80.8696" stroke="white" stroke-width="1.5" stroke-linecap="round" stroke-linejoin="round"/>
</svg>
