<svg width="135" height="40" viewBox="0 0 135 40" fill="none" xmlns="http://www.w3.org/2000/svg">
<path d="M130.197 40H4.729C2.122 40 0 37.872 0 35.267V4.726C0 2.12 2.122 0 4.729 0H130.197C132.803 0 135 2.12 135 4.726V35.267C135 37.872 132.803 40 130.197 40Z" fill="#A6A6A6"/>
<path d="M134.032 35.2679C134.032 37.3839 132.318 39.0979 130.198 39.0979H4.72889C2.60989 39.0979 0.889893 37.3839 0.889893 35.2679V4.72489C0.889893 2.60989 2.60989 0.889893 4.72889 0.889893H130.197C132.318 0.889893 134.031 2.60989 134.031 4.72489L134.032 35.2679Z" fill="black"/>
<path d="M30.1281 19.784C30.0991 16.561 32.7671 14.993 32.8891 14.92C31.3781 12.717 29.0361 12.416 28.2131 12.392C26.2461 12.185 24.3381 13.569 23.3361 13.569C22.3141 13.569 20.7711 12.412 19.1081 12.446C16.9681 12.479 14.9661 13.718 13.8681 15.642C11.6021 19.565 13.2921 25.33 15.4631 28.5009C16.5491 30.0539 17.8181 31.7879 19.4791 31.7269C21.1041 31.6599 21.7111 30.691 23.6721 30.691C25.6151 30.691 26.1851 31.7269 27.8791 31.688C29.6231 31.66 30.7211 30.128 31.7691 28.561C33.0241 26.781 33.5281 25.028 33.5481 24.938C33.5071 24.924 30.1611 23.647 30.1281 19.784Z" fill="white"/>
<path d="M26.928 10.306C27.802 9.21304 28.4 7.72604 28.234 6.21704C26.969 6.27304 25.387 7.09204 24.476 8.16104C23.67 9.10304 22.95 10.647 23.136 12.099C24.557 12.205 26.016 11.382 26.928 10.306Z" fill="white"/>
<path d="M53.6449 31.504H51.3739L50.1299 27.595H45.8059L44.6209 31.504H42.4099L46.6939 18.196H49.3399L53.6449 31.504ZM49.7549 25.955L48.6299 22.48C48.5109 22.125 48.2879 21.289 47.9589 19.973H47.9189C47.7879 20.539 47.5769 21.375 47.2869 22.48L46.1819 25.955H49.7549Z" fill="white"/>
<path d="M64.6619 26.5879C64.6619 28.2199 64.2209 29.5099 63.3389 30.4569C62.5489 31.2999 61.5679 31.7209 60.3969 31.7209C59.1329 31.7209 58.2249 31.2669 57.6719 30.3589H57.6319V35.4139H55.4999V25.0669C55.4999 24.0409 55.4729 22.9879 55.4209 21.9079H57.2959L57.4149 23.4289H57.4549C58.1659 22.2829 59.2449 21.7109 60.6929 21.7109C61.8249 21.7109 62.7699 22.1579 63.5259 23.0529C64.2839 23.9489 64.6619 25.1269 64.6619 26.5879ZM62.4899 26.6659C62.4899 25.7319 62.2799 24.9619 61.8579 24.3559C61.3969 23.7239 60.7779 23.4079 60.0019 23.4079C59.4759 23.4079 58.9979 23.5839 58.5709 23.9309C58.1429 24.2809 57.8629 24.7379 57.7319 25.3039C57.6659 25.5679 57.6329 25.7839 57.6329 25.9539V27.5539C57.6329 28.2519 57.8469 28.8409 58.2749 29.3219C58.7029 29.8029 59.2589 30.0429 59.9429 30.0429C60.7459 30.0429 61.3709 29.7329 61.8179 29.1149C62.2659 28.4959 62.4899 27.6799 62.4899 26.6659Z" fill="white"/>
<path d="M75.699 26.5879C75.699 28.2199 75.258 29.5099 74.375 30.4569C73.586 31.2999 72.605 31.7209 71.434 31.7209C70.17 31.7209 69.262 31.2669 68.71 30.3589H68.67V35.4139H66.538V25.0669C66.538 24.0409 66.511 22.9879 66.459 21.9079H68.334L68.453 23.4289H68.493C69.203 22.2829 70.282 21.7109 71.731 21.7109C72.862 21.7109 73.807 22.1579 74.565 23.0529C75.32 23.9489 75.699 25.1269 75.699 26.5879ZM73.527 26.6659C73.527 25.7319 73.316 24.9619 72.894 24.3559C72.433 23.7239 71.816 23.4079 71.039 23.4079C70.512 23.4079 70.035 23.5839 69.607 23.9309C69.179 24.2809 68.9 24.7379 68.769 25.3039C68.704 25.5679 68.67 25.7839 68.67 25.9539V27.5539C68.67 28.2519 68.884 28.8409 69.31 29.3219C69.738 29.8019 70.294 30.0429 70.98 30.0429C71.783 30.0429 72.408 29.7329 72.855 29.1149C73.303 28.4959 73.527 27.6799 73.527 26.6659Z" fill="white"/>
<path d="M88.039 27.772C88.039 28.904 87.646 29.825 86.857 30.536C85.99 31.313 84.783 31.701 83.232 31.701C81.8 31.701 80.652 31.425 79.783 30.872L80.277 29.095C81.213 29.661 82.24 29.945 83.359 29.945C84.162 29.945 84.787 29.763 85.236 29.401C85.683 29.039 85.906 28.553 85.906 27.947C85.906 27.407 85.722 26.952 85.353 26.583C84.986 26.214 84.373 25.871 83.517 25.554C81.187 24.685 80.023 23.412 80.023 21.738C80.023 20.644 80.431 19.747 81.248 19.049C82.062 18.35 83.148 18.001 84.506 18.001C85.717 18.001 86.723 18.212 87.526 18.633L86.993 20.371C86.243 19.963 85.395 19.759 84.446 19.759C83.696 19.759 83.11 19.944 82.69 20.312C82.335 20.641 82.157 21.042 82.157 21.517C82.157 22.043 82.36 22.478 82.768 22.82C83.123 23.136 83.768 23.478 84.704 23.847C85.849 24.308 86.69 24.847 87.231 25.465C87.77 26.081 88.039 26.852 88.039 27.772Z" fill="white"/>
<path d="M95.0879 23.5081H92.7379V28.1671C92.7379 29.3521 93.1519 29.9441 93.9819 29.9441C94.3629 29.9441 94.6789 29.9111 94.9289 29.8451L94.9879 31.4641C94.5679 31.6211 94.0149 31.7001 93.3299 31.7001C92.4879 31.7001 91.8299 31.4431 91.3549 30.9301C90.8819 30.4161 90.6439 29.5541 90.6439 28.3431V23.5061H89.2439V21.9061H90.6439V20.1491L92.7379 19.5171V21.9061H95.0879V23.5081Z" fill="white"/>
<path d="M105.691 26.6269C105.691 28.1019 105.269 29.3129 104.427 30.2599C103.544 31.2349 102.372 31.7209 100.911 31.7209C99.503 31.7209 98.382 31.2539 97.546 30.3199C96.71 29.3859 96.292 28.2069 96.292 26.7859C96.292 25.2989 96.722 24.0809 97.585 23.1339C98.446 22.1859 99.608 21.7119 101.069 21.7119C102.477 21.7119 103.61 22.1789 104.465 23.1139C105.283 24.0209 105.691 25.1919 105.691 26.6269ZM103.479 26.6959C103.479 25.8109 103.29 25.0519 102.907 24.4189C102.46 23.6529 101.821 23.2709 100.993 23.2709C100.136 23.2709 99.485 23.6539 99.038 24.4189C98.655 25.0529 98.466 25.8239 98.466 26.7359C98.466 27.6209 98.655 28.3799 99.038 29.0119C99.499 29.7779 100.143 30.1599 100.974 30.1599C101.788 30.1599 102.427 29.7699 102.888 28.9919C103.281 28.3469 103.479 27.5799 103.479 26.6959Z" fill="white"/>
<path d="M112.621 23.7829C112.41 23.7439 112.185 23.7239 111.949 23.7239C111.199 23.7239 110.619 24.0069 110.211 24.5739C109.856 25.0739 109.678 25.7059 109.678 26.4689V31.5039H107.547L107.567 24.9299C107.567 23.8239 107.54 22.8169 107.487 21.9089H109.344L109.422 23.7449H109.481C109.706 23.1139 110.061 22.6059 110.547 22.2249C111.022 21.8819 111.535 21.7109 112.088 21.7109C112.285 21.7109 112.463 21.7249 112.621 21.7499V23.7829Z" fill="white"/>
<path d="M122.156 26.2519C122.156 26.6339 122.131 26.9559 122.078 27.2189H115.682C115.707 28.1669 116.016 28.8919 116.61 29.3919C117.149 29.8389 117.846 30.0629 118.702 30.0629C119.649 30.0629 120.513 29.9119 121.29 29.6089L121.624 31.0889C120.716 31.4849 119.644 31.6819 118.407 31.6819C116.919 31.6819 115.751 31.2439 114.901 30.3689C114.053 29.4939 113.628 28.3189 113.628 26.8449C113.628 25.3979 114.023 24.1929 114.814 23.2319C115.642 22.2059 116.761 21.6929 118.169 21.6929C119.552 21.6929 120.599 22.2059 121.31 23.2319C121.873 24.0469 122.156 25.0549 122.156 26.2519ZM120.123 25.6989C120.137 25.0669 119.998 24.5209 119.709 24.0599C119.34 23.4669 118.773 23.1709 118.01 23.1709C117.313 23.1709 116.746 23.4599 116.313 24.0399C115.958 24.5009 115.747 25.0539 115.682 25.6979H120.123V25.6989Z" fill="white"/>
<path d="M49.05 10.0089C49.05 11.1859 48.697 12.0719 47.992 12.6669C47.339 13.2159 46.411 13.4909 45.209 13.4909C44.613 13.4909 44.103 13.4649 43.676 13.4129V6.98195C44.233 6.89195 44.833 6.84595 45.481 6.84595C46.626 6.84595 47.489 7.09495 48.071 7.59295C48.723 8.15595 49.05 8.96095 49.05 10.0089ZM47.945 10.0379C47.945 9.27495 47.743 8.68995 47.339 8.28195C46.935 7.87495 46.345 7.67095 45.568 7.67095C45.238 7.67095 44.957 7.69295 44.724 7.73895V12.6279C44.853 12.6479 45.089 12.6569 45.432 12.6569C46.234 12.6569 46.853 12.4339 47.289 11.9879C47.725 11.5419 47.945 10.8919 47.945 10.0379Z" fill="white"/>
<path d="M54.909 11.0368C54.909 11.7618 54.702 12.3558 54.288 12.8218C53.854 13.3008 53.279 13.5398 52.561 13.5398C51.869 13.5398 51.318 13.3108 50.907 12.8508C50.497 12.3918 50.292 11.8128 50.292 11.1148C50.292 10.3848 50.503 9.7858 50.927 9.3208C51.351 8.8558 51.921 8.6228 52.639 8.6228C53.331 8.6228 53.887 8.8518 54.308 9.3108C54.708 9.7568 54.909 10.3328 54.909 11.0368ZM53.822 11.0708C53.822 10.6358 53.728 10.2628 53.541 9.9518C53.321 9.5758 53.008 9.3878 52.601 9.3878C52.18 9.3878 51.86 9.5758 51.64 9.9518C51.452 10.2628 51.359 10.6418 51.359 11.0898C51.359 11.5248 51.453 11.8978 51.64 12.2088C51.867 12.5848 52.183 12.7728 52.591 12.7728C52.991 12.7728 53.305 12.5818 53.531 12.1988C53.725 11.8818 53.822 11.5058 53.822 11.0708Z" fill="white"/>
<path d="M62.7651 8.71899L61.2901 13.433H60.3301L59.7191 11.386C59.5641 10.875 59.4381 10.367 59.3401 9.86299H59.3211C59.2301 10.381 59.1041 10.888 58.9421 11.386L58.2931 13.433H57.3221L55.9351 8.71899H57.0121L57.5451 10.96C57.6741 11.49 57.7801 11.995 57.8651 12.473H57.8841C57.9621 12.079 58.0911 11.577 58.2731 10.97L58.9421 8.71999H59.7961L60.4371 10.922C60.5921 11.459 60.7181 11.976 60.8151 12.474H60.8441C60.9151 11.989 61.0221 11.472 61.1641 10.922L61.7361 8.71999H62.7651V8.71899Z" fill="white"/>
<path d="M68.1979 13.4329H67.1499V10.7329C67.1499 9.90087 66.8339 9.48487 66.1999 9.48487C65.8889 9.48487 65.6379 9.59887 65.4429 9.82787C65.2499 10.0569 65.1519 10.3269 65.1519 10.6359V13.4319H64.1039V10.0659C64.1039 9.65187 64.0909 9.20287 64.0659 8.71687H64.9869L65.0359 9.45387H65.0649C65.1869 9.22487 65.3689 9.03587 65.6079 8.88487C65.8919 8.70887 66.2099 8.61987 66.5579 8.61987C66.9979 8.61987 67.3639 8.76187 67.6549 9.04687C68.0169 9.39587 68.1979 9.91687 68.1979 10.6089V13.4329Z" fill="white"/>
<path d="M71.088 13.4329H70.041V6.55591H71.088V13.4329Z" fill="white"/>
<path d="M77.2581 11.0368C77.2581 11.7618 77.0511 12.3558 76.6371 12.8218C76.2031 13.3008 75.6271 13.5398 74.9101 13.5398C74.2171 13.5398 73.6661 13.3108 73.2561 12.8508C72.8461 12.3918 72.6411 11.8128 72.6411 11.1148C72.6411 10.3848 72.8521 9.7858 73.2761 9.3208C73.7001 8.8558 74.2701 8.6228 74.9871 8.6228C75.6801 8.6228 76.2351 8.8518 76.6571 9.3108C77.0571 9.7568 77.2581 10.3328 77.2581 11.0368ZM76.1701 11.0708C76.1701 10.6358 76.0761 10.2628 75.8891 9.9518C75.6701 9.5758 75.3561 9.3878 74.9501 9.3878C74.5281 9.3878 74.2081 9.5758 73.9891 9.9518C73.8011 10.2628 73.7081 10.6418 73.7081 11.0898C73.7081 11.5248 73.8021 11.8978 73.9891 12.2088C74.2161 12.5848 74.5321 12.7728 74.9401 12.7728C75.3401 12.7728 75.6531 12.5818 75.8791 12.1988C76.0741 11.8818 76.1701 11.5058 76.1701 11.0708Z" fill="white"/>
<path d="M82.33 13.4328H81.389L81.311 12.8898H81.282C80.96 13.3228 80.501 13.5398 79.905 13.5398C79.46 13.5398 79.1 13.3968 78.829 13.1128C78.583 12.8548 78.46 12.5338 78.46 12.1528C78.46 11.5768 78.7 11.1378 79.183 10.8338C79.665 10.5298 80.343 10.3808 81.216 10.3878V10.2998C81.216 9.6788 80.89 9.3688 80.237 9.3688C79.772 9.3688 79.362 9.4858 79.008 9.7178L78.795 9.0298C79.233 8.7588 79.774 8.6228 80.412 8.6228C81.644 8.6228 82.262 9.2728 82.262 10.5728V12.3088C82.262 12.7798 82.285 13.1548 82.33 13.4328ZM81.242 11.8128V11.0858C80.086 11.0658 79.508 11.3828 79.508 12.0358C79.508 12.2818 79.574 12.4658 79.709 12.5888C79.844 12.7118 80.016 12.7728 80.221 12.7728C80.451 12.7728 80.666 12.6998 80.862 12.5548C81.059 12.4088 81.18 12.2238 81.225 11.9968C81.236 11.9458 81.242 11.8838 81.242 11.8128Z" fill="white"/>
<path d="M88.2849 13.4329H87.3549L87.3059 12.6759H87.2769C86.9799 13.2519 86.4739 13.5399 85.7629 13.5399C85.1949 13.5399 84.7219 13.3169 84.3469 12.8709C83.9719 12.4249 83.7849 11.8459 83.7849 11.1349C83.7849 10.3719 83.9879 9.75391 84.3959 9.28191C84.7909 8.84191 85.2749 8.62191 85.8509 8.62191C86.4839 8.62191 86.9269 8.83491 87.1789 9.26191H87.1989V6.55591H88.2479V12.1629C88.2479 12.6219 88.2599 13.0449 88.2849 13.4329ZM87.1989 11.4449V10.6589C87.1989 10.5229 87.1889 10.4129 87.1699 10.3289C87.1109 10.0769 86.9839 9.86491 86.7909 9.69391C86.5959 9.52291 86.3609 9.43691 86.0899 9.43691C85.6989 9.43691 85.3929 9.59191 85.1679 9.90291C84.9449 10.2139 84.8319 10.6109 84.8319 11.0959C84.8319 11.5619 84.9389 11.9399 85.1539 12.2309C85.3809 12.5409 85.6869 12.6959 86.0699 12.6959C86.4139 12.6959 86.6889 12.5669 86.8979 12.3079C87.0999 12.0689 87.1989 11.7809 87.1989 11.4449Z" fill="white"/>
<path d="M97.2481 11.0368C97.2481 11.7618 97.0411 12.3558 96.6271 12.8218C96.1931 13.3008 95.6191 13.5398 94.9001 13.5398C94.2091 13.5398 93.6581 13.3108 93.2461 12.8508C92.8361 12.3918 92.6311 11.8128 92.6311 11.1148C92.6311 10.3848 92.8421 9.7858 93.2661 9.3208C93.6901 8.8558 94.2601 8.6228 94.9791 8.6228C95.6701 8.6228 96.2271 8.8518 96.6471 9.3108C97.0471 9.7568 97.2481 10.3328 97.2481 11.0368ZM96.1621 11.0708C96.1621 10.6358 96.0681 10.2628 95.8811 9.9518C95.6601 9.5758 95.3481 9.3878 94.9401 9.3878C94.5201 9.3878 94.2001 9.5758 93.9791 9.9518C93.7911 10.2628 93.6981 10.6418 93.6981 11.0898C93.6981 11.5248 93.7921 11.8978 93.9791 12.2088C94.2061 12.5848 94.5221 12.7728 94.9301 12.7728C95.3301 12.7728 95.6451 12.5818 95.8711 12.1988C96.0641 11.8818 96.1621 11.5058 96.1621 11.0708Z" fill="white"/>
<path d="M102.883 13.4329H101.836V10.7329C101.836 9.90087 101.52 9.48487 100.885 9.48487C100.574 9.48487 100.323 9.59887 100.129 9.82787C99.9349 10.0569 99.8379 10.3269 99.8379 10.6359V13.4319H98.789V10.0659C98.789 9.65187 98.777 9.20287 98.752 8.71687H99.6719L99.721 9.45387H99.75C99.873 9.22487 100.055 9.03587 100.293 8.88487C100.578 8.70887 100.895 8.61987 101.244 8.61987C101.683 8.61987 102.049 8.76187 102.34 9.04687C102.703 9.39587 102.883 9.91687 102.883 10.6089V13.4329Z" fill="white"/>
<path d="M109.936 9.50392H108.782V11.7939C108.782 12.3759 108.987 12.6669 109.393 12.6669C109.581 12.6669 109.737 12.6509 109.86 12.6179L109.887 13.4129C109.68 13.4909 109.408 13.5299 109.073 13.5299C108.659 13.5299 108.337 13.4039 108.104 13.1519C107.87 12.8999 107.754 12.4759 107.754 11.8809V9.50392H107.065V8.71892H107.754V7.85492L108.781 7.54492V8.71792H109.935V9.50392H109.936Z" fill="white"/>
<path d="M115.484 13.4329H114.435V10.7529C114.435 9.90791 114.119 9.48491 113.486 9.48491C113 9.48491 112.668 9.72991 112.486 10.2199C112.455 10.3229 112.437 10.4489 112.437 10.5969V13.4319H111.39V6.55591H112.437V9.39691H112.457C112.787 8.87991 113.26 8.62191 113.873 8.62191C114.307 8.62191 114.666 8.76391 114.951 9.04891C115.306 9.40391 115.484 9.93191 115.484 10.6299V13.4329Z" fill="white"/>
<path d="M121.207 10.853C121.207 11.041 121.193 11.199 121.168 11.328H118.025C118.039 11.794 118.189 12.149 118.48 12.395C118.746 12.615 119.089 12.725 119.509 12.725C119.974 12.725 120.398 12.651 120.78 12.502L120.944 13.23C120.497 13.424 119.971 13.521 119.362 13.521C118.632 13.521 118.057 13.306 117.641 12.876C117.223 12.446 117.016 11.869 117.016 11.145C117.016 10.434 117.209 9.84201 117.598 9.37001C118.004 8.86601 118.553 8.61401 119.246 8.61401C119.924 8.61401 120.439 8.86601 120.787 9.37001C121.068 9.77001 121.207 10.265 121.207 10.853ZM120.207 10.582C120.215 10.271 120.146 10.003 120.004 9.77701C119.822 9.48601 119.545 9.34001 119.17 9.34001C118.828 9.34001 118.549 9.48201 118.336 9.76701C118.162 9.99401 118.059 10.265 118.025 10.582H120.207Z" fill="white"/>
</svg>
