<svg width="135" height="40" viewBox="0 0 135 40" fill="none" xmlns="http://www.w3.org/2000/svg">
<path fill-rule="evenodd" clip-rule="evenodd" d="M129.998 40H5.00184C2.24512 40 0 37.7456 0 35V5C0 2.24439 2.24512 0 5.00184 0H129.998C132.752 0 135 2.24439 135 5V35C135 37.7456 132.752 40 129.998 40Z" fill="black"/>
<path fill-rule="evenodd" clip-rule="evenodd" d="M129.998 0.800499C132.31 0.800499 134.203 2.68828 134.203 5V35C134.203 37.3117 132.323 39.1995 129.998 39.1995H5.00184C2.68967 39.1995 0.797215 37.3117 0.797215 35V5C0.797215 2.68828 2.67725 0.800499 5.00184 0.800499H129.998ZM129.998 0H5.00184C2.24512 0 0 2.25436 0 5V35C0 37.7556 2.24512 40 5.00184 40H129.998C132.752 40 135 37.7556 135 35V5C135 2.25436 132.752 0 129.998 0Z" fill="#A6A6A6"/>
<path d="M71.1186 13.232C70.2171 13.232 69.4571 12.9153 68.8561 12.2918C68.26 11.6858 67.9272 10.8504 67.9421 9.99755C67.9421 9.08732 68.2501 8.31675 68.8561 7.70578C69.4546 7.08233 70.2146 6.76562 71.1161 6.76562C72.0077 6.76562 72.7677 7.08233 73.3786 7.70578C73.9846 8.3367 74.2925 9.10727 74.2925 9.99755C74.2826 10.9103 73.9747 11.6808 73.3786 12.2893C72.7801 12.9177 72.0201 13.232 71.1186 13.232ZM44.2939 13.232C43.4123 13.232 42.6473 12.9202 42.0215 12.3043C41.4006 11.6908 41.0852 10.9153 41.0852 10C41.0852 9.08483 41.4006 8.30927 42.0215 7.6958C42.6349 7.07984 43.3999 6.76812 44.2939 6.76812C44.731 6.76812 45.1557 6.8554 45.563 7.03246C45.9629 7.20453 46.2882 7.43894 46.5291 7.72572L46.5887 7.79804L45.9157 8.46139L45.8461 8.37909C45.4662 7.92523 44.957 7.70328 44.284 7.70328C43.683 7.70328 43.159 7.91775 42.7268 8.34169C42.2922 8.76812 42.0712 9.32672 42.0712 10.0025C42.0712 10.6783 42.2922 11.2369 42.7268 11.6634C43.159 12.0873 43.683 12.3018 44.284 12.3018C44.9247 12.3018 45.4637 12.0873 45.8834 11.6634C46.1317 11.414 46.2857 11.0649 46.3404 10.6235H44.1822V9.69081H47.2667L47.2791 9.7756C47.3015 9.93271 47.3238 10.0948 47.3238 10.2444C47.3238 11.1048 47.0656 11.8005 46.5539 12.3143C45.9728 12.9227 45.2128 13.232 44.2939 13.232ZM79.96 13.0998H79.0088L76.0956 8.41899L76.1204 9.26188V13.0973H75.1692V6.90029H76.2545L76.2843 6.94767L79.0237 11.3566L78.9988 10.5162V6.90029H79.96V13.0998ZM63.971 13.0998H63.0074V7.83296H61.3359V6.90029H65.6399V7.83296H63.9685V13.0998H63.971ZM60.5512 13.0998H59.59V6.90029H60.5512V13.0998ZM55.1495 13.0998H54.1883V7.83296H52.5169V6.90029H56.8209V7.83296H55.1495V13.0998ZM51.9085 13.0898H48.2229V6.90029H51.9085V7.83296H49.1865V9.5337H51.6427V10.4564H49.1865V12.1571H51.9085V13.0898ZM69.5614 11.6509C69.9911 12.0823 70.5126 12.2993 71.1186 12.2993C71.742 12.2993 72.2511 12.0873 72.6758 11.6509C73.098 11.227 73.3116 10.6709 73.3116 10C73.3116 9.32922 73.098 8.77061 72.6782 8.34917C72.2486 7.91774 71.7246 7.70079 71.1211 7.70079C70.4977 7.70079 69.9886 7.91276 69.5664 8.34917C69.1442 8.77311 68.9306 9.32922 68.9306 10C68.9306 10.6709 69.1417 11.2295 69.5614 11.6509Z" fill="white"/>
<path fill-rule="evenodd" clip-rule="evenodd" d="M67.8526 21.7557C65.5057 21.7557 63.6033 23.5437 63.6033 26.01C63.6033 28.4539 65.5181 30.2644 67.8526 30.2644C70.1995 30.2644 72.1019 28.4639 72.1019 26.01C72.1019 23.5437 70.1995 21.7557 67.8526 21.7557ZM67.8526 28.5786C66.5686 28.5786 65.4634 27.5113 65.4634 26.0001C65.4634 24.4664 66.5711 23.4215 67.8526 23.4215C69.1366 23.4215 70.2418 24.4664 70.2418 26.0001C70.2443 27.5212 69.1366 28.5786 67.8526 28.5786ZM58.5815 21.7557C56.2346 21.7557 54.3322 23.5437 54.3322 26.01C54.3322 28.4539 56.247 30.2644 58.5815 30.2644C60.9285 30.2644 62.8309 28.4639 62.8309 26.01C62.8309 23.5437 60.926 21.7557 58.5815 21.7557ZM58.5815 28.5786C57.2976 28.5786 56.1924 27.5113 56.1924 26.0001C56.1924 24.4664 57.3 23.4215 58.5815 23.4215C59.8655 23.4215 60.9707 24.4664 60.9707 26.0001C60.9707 27.5212 59.8655 28.5786 58.5815 28.5786ZM47.5496 23.0549V24.8554H51.8536C51.722 25.8654 51.3892 26.611 50.8801 27.1222C50.2493 27.7557 49.2757 28.4439 47.5596 28.4439C44.9146 28.4439 42.8458 26.2993 42.8458 23.6434C42.8458 20.9876 44.9146 18.8429 47.5596 18.8429C48.9876 18.8429 50.0282 19.409 50.8006 20.1322L52.0722 18.8554C50.9993 17.823 49.5713 17.0325 47.5695 17.0325C43.9411 17.0325 40.8962 20.0001 40.8962 23.6335C40.8962 27.2769 43.9386 30.2345 47.5695 30.2345C49.529 30.2345 50.9993 29.5911 52.1616 28.3791C53.3462 27.1896 53.7213 25.5113 53.7213 24.1572C53.7213 23.7357 53.689 23.3567 53.6219 23.035H47.5472C47.5496 23.0325 47.5496 23.0549 47.5496 23.0549ZM92.6731 24.4564C92.318 23.5013 91.2451 21.7457 89.0447 21.7457C86.8641 21.7457 85.0511 23.4689 85.0511 26.0001C85.0511 28.3891 86.8442 30.2544 89.2558 30.2544C91.1929 30.2544 92.3204 29.0649 92.7849 28.3666L91.3469 27.3991C90.8701 28.1098 90.207 28.5761 89.2657 28.5761C88.3145 28.5761 87.6489 28.1422 87.2068 27.2868L92.8718 24.9302C92.8718 24.9327 92.6731 24.4564 92.6731 24.4564ZM86.8964 25.8779C86.8517 24.2345 88.168 23.3991 89.1092 23.3991C89.8518 23.3991 90.4702 23.7656 90.6813 24.2993L86.8964 25.8779ZM82.2944 30.0001H84.1546V17.5013H82.2944V30.0001ZM79.2396 22.7008H79.1726C78.7529 22.1996 77.9556 21.7457 76.9374 21.7457C74.8239 21.7457 72.8768 23.6135 72.8768 26.0125C72.8768 28.4015 74.814 30.2469 76.9374 30.2469C77.9432 30.2469 78.7529 29.7906 79.1726 29.2794H79.2396V29.8903C79.2396 31.5138 78.3754 32.3891 76.9821 32.3891C75.8422 32.3891 75.1343 31.5661 74.8462 30.8779L73.2295 31.5562C73.6939 32.6784 74.9332 34.0674 76.9796 34.0674C79.1602 34.0674 81.0079 32.7781 81.0079 29.6335V22.0001H79.2496V22.7008C79.2521 22.7008 79.2396 22.7008 79.2396 22.7008ZM77.1038 28.5786C75.8198 28.5786 74.7469 27.5013 74.7469 26.0125C74.7469 24.5113 75.8198 23.424 77.1038 23.424C78.3754 23.424 79.3613 24.5237 79.3613 26.0125C79.3737 27.5013 78.3778 28.5786 77.1038 28.5786ZM101.383 17.5013H96.9349V30.0001H98.795V25.2669H101.385C103.444 25.2669 105.468 23.7681 105.468 21.3891C105.468 19.01 103.452 17.5013 101.383 17.5013ZM101.438 23.5212H98.7926V19.232H101.438C102.831 19.232 103.618 20.3866 103.618 21.3766C103.618 22.3567 102.821 23.5212 101.438 23.5212ZM112.924 21.7332C111.573 21.7332 110.18 22.3342 109.603 23.6434L111.252 24.3317C111.608 23.6434 112.258 23.409 112.946 23.409C113.91 23.409 114.883 23.9876 114.906 25.02V25.1522C114.573 24.9626 113.843 24.6734 112.969 24.6734C111.188 24.6734 109.382 25.6509 109.382 27.4838C109.382 29.1621 110.843 30.2395 112.469 30.2395C113.719 30.2395 114.407 29.6734 114.836 29.0175H114.903V29.9851H116.696V25.1971C116.696 22.9676 115.047 21.7332 112.924 21.7332ZM112.69 28.5786C112.082 28.5786 111.23 28.2794 111.23 27.5113C111.23 26.5437 112.293 26.1771 113.2 26.1771C114.019 26.1771 114.407 26.3542 114.893 26.5986C114.759 27.7207 113.815 28.5686 112.69 28.5786ZM123.238 22.0001L121.102 27.4215H121.035L118.822 22.0001H116.821L120.141 29.5786L118.249 33.7906H120.186L125.294 22.0001H123.238ZM106.494 30.0001H108.354V17.5013H106.494V30.0001Z" fill="white"/>
<path fill-rule="evenodd" clip-rule="evenodd" d="M10.3915 7.53364C10.1034 7.84536 9.93701 8.32167 9.93701 8.94511V31.0573C9.93701 31.6808 10.1034 32.1571 10.4014 32.4563L10.4784 32.5237L22.8166 20.1346V19.8578L10.4685 7.46631L10.3915 7.53364Z" fill="url(#paint0_linear)"/>
<path fill-rule="evenodd" clip-rule="evenodd" d="M26.9216 24.2768L22.8064 20.1446V19.8553L26.9216 15.7231L27.011 15.778L31.8788 18.5561C33.2721 19.3441 33.2721 20.6458 31.8788 21.4438L27.011 24.2219L26.9216 24.2768Z" fill="url(#paint1_linear)"/>
<path fill-rule="evenodd" clip-rule="evenodd" d="M27.0107 24.2219L22.806 20L10.3909 32.4663C10.8454 32.9551 11.6078 33.01 12.4597 32.5337L27.0107 24.2219Z" fill="url(#paint2_linear)"/>
<path fill-rule="evenodd" clip-rule="evenodd" d="M27.0107 15.7779L12.4597 7.47869C11.6078 6.98992 10.8429 7.05725 10.3909 7.54603L22.806 19.9999L27.0107 15.7779Z" fill="url(#paint3_linear)"/>
<path opacity="0.2" fill-rule="evenodd" clip-rule="evenodd" d="M26.9217 24.1323L12.4699 32.3767C11.6628 32.843 10.9425 32.8106 10.4781 32.3867L10.4011 32.464L10.4781 32.5313C10.9425 32.9527 11.6628 32.9877 12.4699 32.5213L27.021 24.2221L26.9217 24.1323Z" fill="black"/>
<path opacity="0.12" fill-rule="evenodd" clip-rule="evenodd" d="M31.8787 21.2993L26.9092 24.1322L26.9986 24.2219L31.8663 21.4439C32.5642 21.0449 32.9069 20.5212 32.9069 20C32.8647 20.4788 32.5095 20.9327 31.8787 21.2993Z" fill="black"/>
<path opacity="0.25" fill-rule="evenodd" clip-rule="evenodd" d="M12.4603 7.62354L31.879 18.7008C32.5099 19.0575 32.865 19.5238 32.9196 20.0001C32.9196 19.4789 32.5769 18.9552 31.879 18.5562L12.4603 7.4789C11.067 6.6784 9.93701 7.34673 9.93701 8.94523V9.08987C9.93701 7.48887 11.067 6.83301 12.4603 7.62354Z" fill="white"/>
<defs>
<linearGradient id="paint0_linear" x1="21.7099" y1="8.70654" x2="1.93551" y2="13.9538" gradientUnits="userSpaceOnUse">
<stop stop-color="#00A0FF"/>
<stop offset="0.00657" stop-color="#00A1FF"/>
<stop offset="0.2601" stop-color="#00BEFF"/>
<stop offset="0.5122" stop-color="#00D2FF"/>
<stop offset="0.7604" stop-color="#00DFFF"/>
<stop offset="1" stop-color="#00E3FF"/>
</linearGradient>
<linearGradient id="paint1_linear" x1="33.6957" y1="20" x2="9.59802" y2="20" gradientUnits="userSpaceOnUse">
<stop stop-color="#FFE000"/>
<stop offset="0.4087" stop-color="#FFBD00"/>
<stop offset="0.7754" stop-color="#FFA500"/>
<stop offset="1" stop-color="#FF9C00"/>
</linearGradient>
<linearGradient id="paint2_linear" x1="24.7244" y1="22.2973" x2="8.76156" y2="49.0538" gradientUnits="userSpaceOnUse">
<stop stop-color="#FF3A44"/>
<stop offset="1" stop-color="#C31162"/>
</linearGradient>
<linearGradient id="paint3_linear" x1="7.26459" y1="0.178683" x2="14.3863" y2="12.1286" gradientUnits="userSpaceOnUse">
<stop stop-color="#32A071"/>
<stop offset="0.0685" stop-color="#2DA771"/>
<stop offset="0.4762" stop-color="#15CF74"/>
<stop offset="0.8009" stop-color="#06E775"/>
<stop offset="1" stop-color="#00F076"/>
</linearGradient>
</defs>
</svg>
