<svg width="107" height="32" viewBox="0 0 107 32" fill="none" xmlns="http://www.w3.org/2000/svg">
<path fill-rule="evenodd" clip-rule="evenodd" d="M66.6436 25.0257C60.4897 29.5759 51.5387 32.0001 43.8184 32.0001C33.0026 32.0001 23.3056 28.0094 15.921 21.3707C15.3615 20.8485 15.8464 20.1399 16.555 20.5501C24.4991 25.1749 34.3079 27.9348 44.4524 27.9348C51.2776 27.9348 58.8114 26.5176 65.7485 23.5711C66.7928 23.1609 67.6506 24.2798 66.6436 25.0257Z" fill="#758A99"/>
<path fill-rule="evenodd" clip-rule="evenodd" d="M69.2169 22.0792C68.4337 21.0722 63.9955 21.5944 62.0188 21.8555C61.422 21.9301 61.3102 21.4079 61.8696 21.0349C65.4127 18.5361 71.1936 19.282 71.8649 20.1025C72.5363 20.9231 71.6784 26.7412 68.3591 29.5012C67.837 29.9114 67.3521 29.6876 67.5759 29.1282C68.3218 27.2634 70.0001 23.1235 69.2169 22.0792Z" fill="#758A99"/>
<path fill-rule="evenodd" clip-rule="evenodd" d="M62.1307 3.50582V1.08158C62.1307 0.708622 62.3917 0.484844 62.7274 0.484844H73.5433C73.8789 0.484844 74.1773 0.745918 74.1773 1.08158V3.13286C74.1773 3.46853 73.8789 3.91608 73.3568 4.662L67.7624 12.6434C69.851 12.6061 72.0514 12.9044 73.9162 13.9487C74.3265 14.1725 74.4384 14.5455 74.4757 14.8811V17.4545C74.4757 17.8275 74.1027 18.2378 73.6925 18.014C70.3731 16.2611 65.9349 16.0746 62.2799 18.0513C61.9069 18.2378 61.4966 17.8648 61.4966 17.4918V15.0303C61.4966 14.6573 61.4966 13.986 61.9069 13.3893L68.3964 4.10256H62.7647C62.429 4.10256 62.1307 3.84149 62.1307 3.50582ZM22.7088 18.5361H19.4267C19.1283 18.4988 18.8673 18.275 18.83 17.9767V1.11888C18.83 0.783217 19.1283 0.522142 19.464 0.522142H22.5223C22.8579 0.522142 23.0817 0.783214 23.119 1.08158V3.28205H23.1936C23.9768 1.15617 25.506 0.149182 27.52 0.149182C29.5712 0.149182 30.8766 1.15617 31.7717 3.28205C32.5549 1.15617 34.3824 0.149182 36.3218 0.149182C37.7018 0.149182 39.1936 0.708622 40.126 2.01398C41.1703 3.43123 40.9465 5.48252 40.9465 7.31002V17.9767C40.9465 18.3123 40.6482 18.5734 40.3125 18.5734H37.0677C36.7321 18.5361 36.471 18.275 36.471 17.9767V9.02563C36.471 8.31701 36.5456 6.5268 36.3964 5.85547C36.1353 4.73659 35.4267 4.40093 34.457 4.40093C33.6738 4.40093 32.816 4.92308 32.4803 5.78089C32.1447 6.63869 32.182 8.05594 32.182 9.02563V17.9767C32.182 18.3123 31.8836 18.5734 31.5479 18.5734H28.2659C27.9302 18.5361 27.6691 18.275 27.6691 17.9767V9.02563C27.6691 7.16083 27.9675 4.36363 25.6551 4.36363C23.3055 4.36363 23.3801 7.04894 23.3801 9.02563V17.9767C23.3428 18.275 23.0817 18.5361 22.7088 18.5361ZM83.5013 0.149182C88.3871 0.149182 91.0351 4.32634 91.0351 9.65967C91.0351 14.8065 88.126 18.9091 83.5013 18.9091C78.7274 18.9091 76.1167 14.7319 76.1167 9.51049C76.0794 4.25175 78.7274 0.149182 83.5013 0.149182ZM83.5013 3.61771C81.0771 3.61771 80.9279 6.93706 80.9279 8.98835C80.9279 11.0396 80.8906 15.4406 83.464 15.4406C86.0001 15.4406 86.1493 11.8974 86.1493 9.73427C86.1493 8.31702 86.0747 6.6014 85.6645 5.25874C85.2915 4.06527 84.5456 3.61771 83.5013 3.61771ZM97.3381 18.5361H94.0561C93.7204 18.4988 93.4594 18.2378 93.4594 17.9394V1.04428C93.4967 0.745916 93.7577 0.484844 94.0934 0.484844H97.1517C97.45 0.484844 97.6738 0.708627 97.7484 0.969699V3.54312H97.823C98.7554 1.23077 100.023 0.149182 102.299 0.149182C103.753 0.149182 105.208 0.671322 106.14 2.12587C106.998 3.46852 106.998 5.74358 106.998 7.38461V18.014C106.961 18.3123 106.699 18.5361 106.364 18.5361H103.082C102.783 18.4988 102.522 18.2751 102.485 18.014V8.83915C102.485 6.97435 102.709 4.28904 100.434 4.28904C99.6505 4.28904 98.9046 4.81119 98.5316 5.6317C98.0841 6.67599 98.0095 7.68298 98.0095 8.83915V17.9394C97.9722 18.2751 97.6738 18.5361 97.3381 18.5361ZM53.5153 10.4802C53.5153 11.7483 53.5526 12.8298 52.9186 13.986C52.3964 14.9184 51.5759 15.4779 50.6435 15.4779C49.3754 15.4779 48.6295 14.5082 48.6295 13.0909C48.6295 10.2937 51.1283 9.77155 53.5153 9.77155V10.4802ZM56.8346 18.4988C56.6109 18.6853 56.3125 18.7226 56.0514 18.5734C54.9698 17.6783 54.7461 17.2308 54.1493 16.373C52.3591 18.2005 51.0537 18.7599 48.7414 18.7599C45.9815 18.7599 43.8183 17.0443 43.8183 13.6504C43.8183 10.965 45.2729 9.17482 47.3242 8.27971C49.1144 7.4965 51.6132 7.34732 53.5153 7.12354V6.71329C53.5153 5.93007 53.5899 4.99767 53.105 4.32634C52.6948 3.72961 51.9489 3.46853 51.2775 3.46853C50.0095 3.46853 48.8906 4.10257 48.6295 5.44522C48.5549 5.74359 48.3684 6.04195 48.0701 6.04195L44.8999 5.70629C44.6388 5.6317 44.3405 5.44522 44.4151 5.03496C45.161 1.15618 48.6295 0 51.7624 0C53.3661 0 55.4547 0.410254 56.7228 1.64102C58.3265 3.13286 58.1773 5.14685 58.1773 7.31002V12.4196C58.1773 13.9487 58.8113 14.62 59.4081 15.4779C59.6318 15.7762 59.6691 16.1492 59.4081 16.3357C58.6994 16.8951 57.506 17.9394 56.8346 18.4988ZM10.4384 10.4802C10.4384 11.7483 10.4757 12.8298 9.84163 13.986C9.31949 14.9184 8.49897 15.4779 7.56657 15.4779C6.29851 15.4779 5.55259 14.5082 5.55259 13.0909C5.55259 10.2937 8.05142 9.77155 10.4384 9.77155V10.4802ZM13.7204 18.4988C13.4966 18.6853 13.1983 18.7226 12.9372 18.5734C11.8556 17.6783 11.6318 17.2308 11.0351 16.373C9.24489 18.2005 7.93953 18.7599 5.62718 18.7599C2.86727 18.7599 0.704102 17.0443 0.704102 13.6504C0.704102 10.965 2.15864 9.17482 4.20993 8.27971C6.00014 7.4965 8.49897 7.34732 10.4011 7.12354V6.71329C10.4011 5.93007 10.4757 4.99767 9.99081 4.32634C9.58056 3.72961 8.83464 3.46853 8.16331 3.46853C6.89524 3.46853 5.77636 4.10257 5.51529 5.44522C5.4407 5.74359 5.25422 6.04195 4.95585 6.04195L1.78568 5.70629C1.52461 5.6317 1.22625 5.44522 1.30084 5.03496C2.04676 1.15618 5.51529 0 8.64816 0C10.2519 0 12.3405 0.410254 13.6085 1.64102C15.2123 3.13286 15.0631 5.14685 15.0631 7.31002V12.4196C15.0631 13.9487 15.6971 14.62 16.2938 15.4779C16.5176 15.7762 16.5549 16.1492 16.2938 16.3357C15.5852 16.8951 14.3917 17.9394 13.7204 18.4988Z" fill="#758A99"/>
</svg>
