<svg width="160" height="32" viewBox="0 0 160 32" fill="none" xmlns="http://www.w3.org/2000/svg">
<g clip-path="url(#clip0)">
<path d="M18.4939 5.91684L9.24696 11.8192L18.4939 17.7215L9.24696 23.6238L0 17.6723L9.24696 11.77L0 5.91684L9.24696 0.0145264L18.4939 5.91684ZM9.19778 25.4929L18.4447 19.5905L27.6917 25.4929L18.4447 31.3952L9.19778 25.4929ZM18.4939 17.6723L27.7409 11.77L18.4939 5.91684L27.6917 0.0145264L36.9387 5.91684L27.6917 11.8192L36.9387 17.7215L27.6917 23.6238L18.4939 17.6723Z" fill="#758A99"/>
<path d="M44.1689 5.91685H51.6452C56.4163 5.91685 60.3511 8.67126 60.3511 14.9671V16.2951C60.3511 22.6401 56.6622 25.4929 51.7928 25.4929H44.1689V5.91685ZM48.3498 9.45824V21.9023H51.5468C54.2521 21.9023 56.0719 20.1316 56.0719 16.1967V15.1638C56.0719 11.2289 54.1537 9.45824 51.3993 9.45824H48.3498ZM62.5645 9.65498H65.9091L66.4502 13.3439C67.0896 10.8354 68.7127 9.50742 71.6639 9.50742H72.6968V13.7374H70.9753C67.5815 13.7374 66.7453 14.9179 66.7453 18.2625V25.5421H62.6137V9.65498H62.5645ZM73.533 17.9182V17.4756C73.533 12.1635 76.9268 9.26149 81.5503 9.26149C86.2721 9.26149 89.5676 12.1635 89.5676 17.4756V17.9182C89.5676 23.1319 86.3705 25.9355 81.5503 25.9355C76.4349 25.8864 73.533 23.1319 73.533 17.9182ZM85.3376 17.869V17.4756C85.3376 14.5244 83.862 12.7537 81.5011 12.7537C79.1894 12.7537 77.6646 14.3768 77.6646 17.4756V17.869C77.6646 20.7218 79.1402 22.345 81.5011 22.345C83.862 22.2958 85.3376 20.7218 85.3376 17.869ZM91.7318 9.65498H95.1748L95.5683 12.6553C96.4044 10.6387 98.1751 9.26149 100.782 9.26149C104.815 9.26149 107.471 12.1635 107.471 17.5247V17.9674C107.471 23.1811 104.52 25.9355 100.782 25.9355C98.2735 25.9355 96.552 24.8043 95.7158 22.9844V31.0017H91.6826L91.7318 9.65498ZM103.29 17.869V17.5247C103.29 14.3768 101.667 12.8029 99.5032 12.8029C97.1914 12.8029 95.6667 14.5736 95.6667 17.5247V17.8199C95.6667 20.6235 97.1422 22.3941 99.454 22.3941C101.815 22.345 103.29 20.8202 103.29 17.869ZM113.57 22.5909L113.226 25.4929H109.685V4.3429H113.718V12.4586C114.603 10.3928 116.374 9.26149 118.882 9.26149C122.67 9.31068 125.473 11.9175 125.473 17.1804V17.6723C125.473 22.9352 122.817 25.9355 118.784 25.9355C116.128 25.8864 114.407 24.6567 113.57 22.5909ZM121.243 17.6723V17.2788C121.243 14.3768 119.669 12.7537 117.456 12.7537C115.193 12.7537 113.62 14.5736 113.62 17.328V17.6723C113.62 20.6235 115.144 22.345 117.407 22.345C119.817 22.345 121.243 20.8202 121.243 17.6723ZM127.244 17.9182V17.4756C127.244 12.1635 130.638 9.26149 135.261 9.26149C139.983 9.26149 143.279 12.1635 143.279 17.4756V17.9182C143.279 23.1319 140.032 25.9355 135.261 25.9355C130.146 25.8864 127.244 23.1319 127.244 17.9182ZM139.098 17.869V17.4756C139.098 14.5244 137.622 12.7537 135.261 12.7537C132.95 12.7537 131.425 14.3768 131.425 17.4756V17.869C131.425 20.7218 132.9 22.345 135.261 22.345C137.622 22.2958 139.098 20.7218 139.098 17.869ZM148.689 17.2788L143.131 9.65498H147.902L151.099 14.426L154.346 9.65498H159.067L153.411 17.2296L159.362 25.4929H154.69L151.05 20.23L147.509 25.4929H142.639L148.689 17.2788Z" fill="#758A99"/>
</g>
<defs>
<clipPath id="clip0">
<rect width="159.363" height="32" fill="white"/>
</clipPath>
</defs>
</svg>
