<svg width="74" height="28" viewBox="0 0 74 28" fill="none" xmlns="http://www.w3.org/2000/svg">
<path d="M33.0483 21H42.7386V19.0121H35.995L42.7003 9.38565V7.90909H33.0099V9.89702H39.7599L33.0483 19.5234V21ZM48.8777 21.1918C51.1661 21.1918 52.7385 20.0732 53.1476 18.3665L50.9871 18.1236C50.6739 18.9545 49.9068 19.3892 48.9097 19.3892C47.4139 19.3892 46.4232 18.4048 46.404 16.7237H53.2435V16.0142C53.2435 12.5689 51.1724 11.054 48.7563 11.054C45.9438 11.054 44.1092 13.1186 44.1092 16.1484C44.1092 19.2294 45.9182 21.1918 48.8777 21.1918ZM46.4104 15.1641C46.4807 13.9112 47.4075 12.8565 48.7882 12.8565C50.1178 12.8565 51.0126 13.8281 51.0254 15.1641H46.4104ZM61.0588 16.8707C61.0588 18.3665 59.9914 19.108 58.9686 19.108C57.8564 19.108 57.115 18.3217 57.115 17.0753V11.1818H54.801V17.4332C54.801 19.7919 56.1434 21.1278 58.0738 21.1278C59.5439 21.1278 60.5794 20.3544 61.0269 19.255H61.1292V21H63.3728V11.1818H61.0588V16.8707ZM73.1121 13.777C72.7925 12.1151 71.463 11.054 69.1619 11.054C66.7968 11.054 65.186 12.2173 65.1924 14.0327C65.186 15.4645 66.0681 16.4105 67.9538 16.8004L69.6285 17.152C70.5298 17.3501 70.9516 17.7145 70.9516 18.2706C70.9516 18.9418 70.2229 19.4467 69.1235 19.4467C68.0624 19.4467 67.3721 18.9865 67.1739 18.1044L64.9175 18.3217C65.2052 20.1243 66.7201 21.1918 69.1299 21.1918C71.5844 21.1918 73.3167 19.9197 73.3231 18.0597C73.3167 16.6598 72.4154 15.8033 70.5617 15.4006L68.887 15.0426C67.8898 14.8189 67.4935 14.4737 67.4999 13.9048C67.4935 13.2401 68.2286 12.7798 69.1938 12.7798C70.2613 12.7798 70.8238 13.3615 71.0028 14.0071L73.1121 13.777Z" fill="white"/>
<path d="M19 10.9999H14V4.99995C14 4.69995 13.8 4.39995 13.6 4.19995C13.2 3.89995 12.5 3.99995 12.2 4.39995L4.2 15.3999C4.1 15.5999 4 15.7999 4 15.9999C4 16.5999 4.4 16.9999 5 16.9999H10V22.9999C10 23.5999 10.4 23.9999 11 23.9999C11.3 23.9999 11.6 23.7999 11.8 23.5999L19.8 12.5999C19.9 12.3999 20 12.1999 20 11.9999C20 11.3999 19.6 10.9999 19 10.9999Z" fill="#FF4564"/>
</svg>
