<svg width="74" height="28" viewBox="0 0 74 28" fill="none" xmlns="http://www.w3.org/2000/svg">
<path d="M33.0483 21V19.5234L39.7599 9.89702H33.0099V7.90909H42.7003V9.38565L35.995 19.0121H42.7386V21H33.0483ZM48.8777 21.1918C47.8933 21.1918 47.0432 20.9872 46.3273 20.5781C45.6156 20.1648 45.068 19.581 44.6845 18.8267C44.301 18.0682 44.1092 17.1754 44.1092 16.1484C44.1092 15.1385 44.301 14.2521 44.6845 13.4893C45.0723 12.7223 45.6135 12.1257 46.3081 11.6996C47.0027 11.2692 47.8188 11.054 48.7563 11.054C49.3614 11.054 49.9324 11.152 50.4693 11.348C51.0105 11.5398 51.4878 11.8381 51.9011 12.2429C52.3188 12.6477 52.6469 13.1634 52.8855 13.7898C53.1241 14.4119 53.2435 15.1534 53.2435 16.0142V16.7237H45.1959V15.1641H51.0254C51.0212 14.7209 50.9253 14.3267 50.7378 13.9815C50.5503 13.6321 50.2882 13.3572 49.9516 13.157C49.6192 12.9567 49.2314 12.8565 48.7882 12.8565C48.3152 12.8565 47.8997 12.9716 47.5418 13.2017C47.1838 13.4276 46.9047 13.7259 46.7044 14.0966C46.5084 14.4631 46.4082 14.8658 46.404 15.3047V16.6662C46.404 17.2372 46.5084 17.7273 46.7172 18.1364C46.926 18.5412 47.2179 18.8523 47.5929 19.0696C47.9679 19.2827 48.4068 19.3892 48.9097 19.3892C49.2463 19.3892 49.551 19.3423 49.8237 19.2486C50.0964 19.1506 50.333 19.0078 50.5332 18.8203C50.7335 18.6328 50.8848 18.4006 50.9871 18.1236L53.1476 18.3665C53.0112 18.9375 52.7513 19.4361 52.3678 19.8622C51.9885 20.2841 51.5027 20.6122 50.9104 20.8466C50.318 21.0767 49.6405 21.1918 48.8777 21.1918ZM61.0588 16.8707V11.1818H63.3728V21H61.1292V19.255H61.0269C60.8053 19.8047 60.4409 20.2543 59.9338 20.6037C59.431 20.9531 58.811 21.1278 58.0738 21.1278C57.4303 21.1278 56.8614 20.9851 56.3671 20.6996C55.877 20.4098 55.4935 19.9901 55.2165 19.4403C54.9395 18.8864 54.801 18.2173 54.801 17.4332V11.1818H57.115V17.0753C57.115 17.6974 57.2854 18.1918 57.6263 18.5582C57.9672 18.9247 58.4147 19.108 58.9686 19.108C59.3096 19.108 59.6398 19.0249 59.9594 18.8587C60.279 18.6925 60.5411 18.4453 60.7456 18.1172C60.9544 17.7848 61.0588 17.3693 61.0588 16.8707ZM73.1121 13.777L71.0028 14.0071C70.9431 13.794 70.8387 13.5938 70.6896 13.4062C70.5447 13.2188 70.3486 13.0675 70.1015 12.9524C69.8543 12.8374 69.5518 12.7798 69.1938 12.7798C68.7123 12.7798 68.3075 12.8842 67.9793 13.093C67.6555 13.3018 67.4957 13.5724 67.4999 13.9048C67.4957 14.1903 67.6001 14.4226 67.8131 14.6016C68.0305 14.7805 68.3884 14.9276 68.887 15.0426L70.5617 15.4006C71.4907 15.6009 72.181 15.9183 72.6327 16.353C73.0887 16.7876 73.3188 17.3565 73.3231 18.0597C73.3188 18.6776 73.1377 19.223 72.7798 19.696C72.4261 20.1648 71.9339 20.5312 71.3032 20.7955C70.6725 21.0597 69.9481 21.1918 69.1299 21.1918C67.9282 21.1918 66.9609 20.9403 66.2279 20.4375C65.495 19.9304 65.0582 19.2251 64.9175 18.3217L67.1739 18.1044C67.2762 18.5476 67.4935 18.8821 67.8259 19.108C68.1583 19.3338 68.5908 19.4467 69.1235 19.4467C69.6732 19.4467 70.1143 19.3338 70.4467 19.108C70.7833 18.8821 70.9516 18.603 70.9516 18.2706C70.9516 17.9893 70.843 17.7571 70.6256 17.5739C70.4126 17.3906 70.0802 17.25 69.6285 17.152L67.9538 16.8004C67.012 16.6044 66.3153 16.2741 65.8636 15.8097C65.4119 15.3409 65.1881 14.7486 65.1924 14.0327C65.1881 13.4276 65.3522 12.9034 65.6846 12.4602C66.0212 12.0128 66.4879 11.6676 67.0844 11.4247C67.6853 11.1776 68.3778 11.054 69.1619 11.054C70.3124 11.054 71.218 11.299 71.8785 11.7891C72.5433 12.2791 72.9545 12.9418 73.1121 13.777Z" fill="#0A2463"/>
<path d="M19 10.9999H14V4.99995C14 4.69995 13.8 4.39995 13.6 4.19995C13.2 3.89995 12.5 3.99995 12.2 4.39995L4.2 15.3999C4.1 15.5999 4 15.7999 4 15.9999C4 16.5999 4.4 16.9999 5 16.9999H10V22.9999C10 23.5999 10.4 23.9999 11 23.9999C11.3 23.9999 11.6 23.7999 11.8 23.5999L19.8 12.5999C19.9 12.3999 20 12.1999 20 11.9999C20 11.3999 19.6 10.9999 19 10.9999Z" fill="#FF4564"/>
</svg>
