<svg width="70" height="28" viewBox="0 0 70 28" fill="none" xmlns="http://www.w3.org/2000/svg">
<path d="M29.0483 21V19.5234L35.7599 9.89702H29.0099V7.90909H38.7003V9.38565L31.995 19.0121H38.7386V21H29.0483ZM44.8777 21.1918C43.8933 21.1918 43.0432 20.9872 42.3273 20.5781C41.6156 20.1648 41.068 19.581 40.6845 18.8267C40.301 18.0682 40.1092 17.1754 40.1092 16.1484C40.1092 15.1385 40.301 14.2521 40.6845 13.4893C41.0723 12.7223 41.6135 12.1257 42.3081 11.6996C43.0027 11.2692 43.8188 11.054 44.7563 11.054C45.3614 11.054 45.9324 11.152 46.4693 11.348C47.0105 11.5398 47.4878 11.8381 47.9011 12.2429C48.3188 12.6477 48.6469 13.1634 48.8855 13.7898C49.1241 14.4119 49.2435 15.1534 49.2435 16.0142V16.7237H41.1959V15.1641H47.0254C47.0212 14.7209 46.9253 14.3267 46.7378 13.9815C46.5503 13.6321 46.2882 13.3572 45.9516 13.157C45.6192 12.9567 45.2314 12.8565 44.7882 12.8565C44.3152 12.8565 43.8997 12.9716 43.5418 13.2017C43.1838 13.4276 42.9047 13.7259 42.7044 14.0966C42.5084 14.4631 42.4082 14.8658 42.404 15.3047V16.6662C42.404 17.2372 42.5084 17.7273 42.7172 18.1364C42.926 18.5412 43.2179 18.8523 43.5929 19.0696C43.9679 19.2827 44.4068 19.3892 44.9097 19.3892C45.2463 19.3892 45.551 19.3423 45.8237 19.2486C46.0964 19.1506 46.333 19.0078 46.5332 18.8203C46.7335 18.6328 46.8848 18.4006 46.9871 18.1236L49.1476 18.3665C49.0112 18.9375 48.7513 19.4361 48.3678 19.8622C47.9885 20.2841 47.5027 20.6122 46.9104 20.8466C46.318 21.0767 45.6405 21.1918 44.8777 21.1918ZM57.0588 16.8707V11.1818H59.3728V21H57.1292V19.255H57.0269C56.8053 19.8047 56.4409 20.2543 55.9338 20.6037C55.431 20.9531 54.811 21.1278 54.0738 21.1278C53.4303 21.1278 52.8614 20.9851 52.3671 20.6996C51.877 20.4098 51.4935 19.9901 51.2165 19.4403C50.9395 18.8864 50.801 18.2173 50.801 17.4332V11.1818H53.115V17.0753C53.115 17.6974 53.2854 18.1918 53.6263 18.5582C53.9672 18.9247 54.4147 19.108 54.9686 19.108C55.3096 19.108 55.6398 19.0249 55.9594 18.8587C56.279 18.6925 56.5411 18.4453 56.7456 18.1172C56.9544 17.7848 57.0588 17.3693 57.0588 16.8707ZM69.1121 13.777L67.0028 14.0071C66.9431 13.794 66.8387 13.5938 66.6896 13.4062C66.5447 13.2188 66.3486 13.0675 66.1015 12.9524C65.8543 12.8374 65.5518 12.7798 65.1938 12.7798C64.7123 12.7798 64.3075 12.8842 63.9793 13.093C63.6555 13.3018 63.4957 13.5724 63.4999 13.9048C63.4957 14.1903 63.6001 14.4226 63.8131 14.6016C64.0305 14.7805 64.3884 14.9276 64.887 15.0426L66.5617 15.4006C67.4907 15.6009 68.181 15.9183 68.6327 16.353C69.0887 16.7876 69.3188 17.3565 69.3231 18.0597C69.3188 18.6776 69.1377 19.223 68.7798 19.696C68.4261 20.1648 67.9339 20.5312 67.3032 20.7955C66.6725 21.0597 65.9481 21.1918 65.1299 21.1918C63.9282 21.1918 62.9609 20.9403 62.2279 20.4375C61.495 19.9304 61.0582 19.2251 60.9175 18.3217L63.1739 18.1044C63.2762 18.5476 63.4935 18.8821 63.8259 19.108C64.1583 19.3338 64.5908 19.4467 65.1235 19.4467C65.6732 19.4467 66.1143 19.3338 66.4467 19.108C66.7833 18.8821 66.9516 18.603 66.9516 18.2706C66.9516 17.9893 66.843 17.7571 66.6256 17.5739C66.4126 17.3906 66.0802 17.25 65.6285 17.152L63.9538 16.8004C63.012 16.6044 62.3153 16.2741 61.8636 15.8097C61.4119 15.3409 61.1881 14.7486 61.1924 14.0327C61.1881 13.4276 61.3522 12.9034 61.6846 12.4602C62.0212 12.0128 62.4879 11.6676 63.0844 11.4247C63.6853 11.1776 64.3778 11.054 65.1619 11.054C66.3124 11.054 67.218 11.299 67.8785 11.7891C68.5433 12.2791 68.9545 12.9418 69.1121 13.777Z" fill="#071263"/>
<path d="M19 11H14V5.00001C14 4.70001 13.8 4.40001 13.6 4.20001C13.2 3.90001 12.5 4.00001 12.2 4.40001L4.2 15.4C4.1 15.6 4 15.8 4 16C4 16.6 4.4 17 5 17H10V23C10 23.6 10.4 24 11 24C11.3 24 11.6 23.8 11.8 23.6L19.8 12.6C19.9 12.4 20 12.2 20 12C20 11.4 19.6 11 19 11Z" fill="#FFCB33"/>
</svg>
