<svg width="119" height="32" viewBox="0 0 119 32" fill="none" xmlns="http://www.w3.org/2000/svg">
<g clip-path="url(#clip0)">
<path d="M16.2725 29.93C14.4923 30.2426 12.6808 30.3363 10.8068 30.5859L5.09095 13.845V31.3044C3.31072 31.4918 1.68662 31.7416 0 31.9915V0.00854492H4.7476L11.244 18.1554V0.00854492H16.2725V29.93ZM26.1111 11.7211C28.0477 11.7211 31.0148 11.6273 32.7951 11.6273V16.6246C30.5774 16.6246 27.9852 16.6246 26.1111 16.7183V24.1519C29.0471 23.9646 31.9831 23.7145 34.9501 23.6208V28.4304L21.1136 29.5238V0.00854492H34.9501V5.00589H26.1111V11.7211ZM53.5339 5.006H48.3492V27.9937C46.6626 27.9937 44.976 27.9937 43.3521 28.056V5.006H38.1674V0.00854492H53.5341L53.5339 5.006ZM61.6545 11.3776H68.4947V16.3748H61.6545V27.7126H56.7505V0.00854492H70.7123V5.00589H61.6545V11.3776ZM78.8329 23.3398C81.6752 23.4021 84.5485 23.6211 87.3284 23.777V28.712C82.8621 28.4307 78.3957 28.15 73.8356 28.056V0.00854492H78.8329V23.3398ZM91.5448 29.0556C93.1377 29.1494 94.8243 29.2431 96.4484 29.4302V0.00854492H91.5448V29.0556ZM118.343 0.00854492L112.003 15.2192L118.343 31.9915C116.469 31.7416 114.595 31.398 112.721 31.0856L109.129 21.8408L105.475 30.3363C103.663 30.0237 101.914 29.93 100.103 29.6801L106.537 15.0317L100.728 0.00854492H106.1L109.379 8.41033L112.877 0.00854492H118.343Z" fill="#758A99"/>
</g>
<defs>
<clipPath id="clip0">
<rect width="118.343" height="32" fill="white"/>
</clipPath>
</defs>
</svg>
