<svg width="77" height="32" viewBox="0 0 77 32" fill="none" xmlns="http://www.w3.org/2000/svg">
<g clip-path="url(#clip0)">
<path d="M5.38008 12.484C5.38008 11.6548 6.06056 11.3357 7.1878 11.3357C8.80383 11.3357 10.8452 11.8249 12.4614 12.6968V7.69931C10.6965 6.9976 8.95275 6.72114 7.1878 6.72114C2.87081 6.72114 0 8.97533 0 12.7394C0 18.6084 8.08074 17.6728 8.08074 20.2035C8.08074 21.1815 7.23026 21.5006 6.03932 21.5006C4.27437 21.5006 2.02019 20.7775 0.233852 19.7993V24.8605C2.21157 25.7111 4.21053 26.0725 6.03932 26.0725C10.4625 26.0725 13.5034 23.8823 13.5034 20.0758C13.4822 13.7388 5.38008 14.8657 5.38008 12.484ZM19.7554 2.46815L14.5667 3.57386L14.5455 20.6074C14.5455 23.7548 16.906 26.0725 20.0532 26.0725C21.7969 26.0725 23.0728 25.7536 23.7745 25.3708V21.054C23.0942 21.3304 19.7341 22.3086 19.7341 19.1613V11.6121H23.7745V7.08268H19.7341L19.7554 2.46815ZM30.3882 8.65625L30.0478 7.08268H25.4545V25.6897H30.7709V13.0795C32.0254 11.4421 34.1521 11.7398 34.8113 11.9737V7.08268C34.1308 6.82745 31.6428 6.3596 30.3882 8.65625ZM36.1084 7.08268H41.446V25.6897H36.1084V7.08268ZM36.1084 5.4665L41.446 4.31818V0.00134277L36.1084 1.12844V5.46635V5.4665ZM52.5465 6.72114C50.4625 6.72114 49.1228 7.69931 48.3786 8.37993L48.102 7.06145H43.4237V31.8566L48.74 30.7297L48.7614 24.7116C49.5269 25.2645 50.6539 26.0513 52.5253 26.0513C56.3318 26.0513 59.798 22.9891 59.798 16.2481C59.7768 10.081 56.2679 6.72114 52.5465 6.72114ZM51.2706 21.3729C50.016 21.3729 49.2715 20.9264 48.7614 20.3735L48.74 12.484C49.2929 11.8674 50.0585 11.4421 51.2706 11.4421C53.2057 11.4421 54.5455 13.6111 54.5455 16.3968C54.5455 19.2464 53.227 21.3729 51.2706 21.3729ZM76.555 16.4607C76.555 11.0167 73.9181 6.72114 68.8783 6.72114C63.817 6.72114 60.7548 11.0169 60.7548 16.4182C60.7548 22.8189 64.3701 26.0513 69.5586 26.0513C72.0893 26.0513 74.0031 25.4771 75.4492 24.6691V20.416C74.0033 21.1391 72.3445 21.5857 70.2392 21.5857C68.1764 21.5857 66.3476 20.8626 66.1138 18.3533H76.5126C76.5126 18.0767 76.555 16.971 76.555 16.4607ZM66.0499 14.4405C66.0499 12.0375 67.5173 11.038 68.8571 11.038C70.1542 11.038 71.5365 12.0375 71.5365 14.4405H66.0499Z" fill="#758A99"/>
</g>
<defs>
<clipPath id="clip0">
<rect width="76.555" height="32" fill="white"/>
</clipPath>
</defs>
</svg>
